<svg width="549" height="575" viewBox="0 0 549 575" fill="none" xmlns="http://www.w3.org/2000/svg">
<g id="WHEEL">
<path id="Ellipse 1" d="M540.5 300.5C540.5 447.408 421.408 566.5 274.5 566.5C127.592 566.5 8.5 447.408 8.5 300.5C8.5 153.592 127.592 34.5 274.5 34.5C421.408 34.5 540.5 153.592 540.5 300.5Z" stroke="#A89B8D" stroke-width="17"/>
<circle id="Ellipse 3" cx="272.5" cy="300.5" r="126.5" stroke="#A89B8D" stroke-width="20"/>
<circle id="Ellipse 4" cx="274.5" cy="300.5" r="103" stroke="#A89B8D" stroke-width="7"/>
<circle id="Ellipse 5" cx="275" cy="301" r="33.5" stroke="#A89B8D" stroke-width="7"/>
<circle id="Ellipse 6" cx="274.5" cy="300.5" r="50.5" stroke="#A89B8D" stroke-width="6"/>
<circle id="Ellipse 7" cx="274.5" cy="298.5" r="72" stroke="#A89B8D" stroke-width="7"/>
<circle id="Ellipse 2" cx="275" cy="301" r="187" stroke="#A89B8D" stroke-width="60"/>
<path id="Vector 1" d="M237.011 240L203 298.983L237.011 356H308.975L342 298.983L308.975 240H237.011Z" stroke="#A89B8D" stroke-width="7"/>
<g id="Group 1">
<path id="S" d="M199.273 466.787C202.474 469.479 204.574 471.965 205.571 474.245C206.547 476.533 206.532 478.807 205.525 481.067C204.385 483.624 202.426 485.281 199.647 486.038C196.847 486.804 193.812 486.458 190.541 485C188.311 484.006 186.518 482.691 185.163 481.053C183.793 479.409 182.971 477.617 182.695 475.677C182.404 473.73 182.66 471.857 183.462 470.058L187.765 471.976C186.891 473.938 186.83 475.755 187.581 477.427C188.327 479.113 189.837 480.463 192.111 481.477C194.222 482.418 196.081 482.685 197.688 482.278C199.273 481.88 200.433 480.856 201.169 479.206C201.758 477.882 201.701 476.512 200.997 475.093C200.271 473.683 198.732 471.999 196.379 470.041C194.011 468.077 192.274 466.296 191.169 464.699C190.042 463.11 189.386 461.543 189.2 459.999C189 458.449 189.268 456.849 190.004 455.199C191.176 452.567 193.143 450.913 195.903 450.237C198.657 449.575 201.751 450.01 205.185 451.54C207.415 452.534 209.308 453.885 210.863 455.594C212.411 457.318 213.382 459.158 213.775 461.115C214.153 463.066 213.921 464.985 213.08 466.873L208.776 464.955C209.651 462.992 209.622 461.117 208.69 459.33C207.737 457.551 206.048 456.121 203.625 455.041C201.365 454.034 199.428 453.723 197.813 454.108C196.198 454.494 195.036 455.481 194.327 457.072C193.618 458.663 193.629 460.138 194.36 461.497C195.084 462.871 196.722 464.634 199.273 466.787Z" fill="#161616"/>
<path id="H" d="M160.308 423.207L164.028 426.099L153.942 439.071L168.089 450.07L178.174 437.099L181.875 439.977L160.055 468.039L156.355 465.161L165.736 453.096L151.589 442.096L142.208 454.162L138.488 451.269L160.308 423.207Z" fill="#161616"/>
<path id="O" d="M120.455 402.105C123.189 399.947 125.941 398.521 128.712 397.827C131.469 397.144 134.05 397.222 136.454 398.061C138.858 398.9 140.948 400.444 142.723 402.692C144.457 404.89 145.459 407.261 145.727 409.808C145.982 412.364 145.487 414.901 144.24 417.42C142.97 419.936 141.03 422.245 138.418 424.348L136.406 425.937C133.723 428.055 130.985 429.459 128.192 430.15C125.399 430.841 122.789 430.766 120.362 429.924C117.912 429.079 115.82 427.558 114.085 425.361C112.32 423.125 111.31 420.729 111.055 418.173C110.777 415.614 111.303 413.062 112.634 410.519C113.952 407.986 115.971 405.645 118.692 403.497L120.455 402.105ZM121.543 407.187C118.235 409.799 116.223 412.465 115.509 415.186C114.782 417.916 115.361 420.476 117.247 422.865C119.083 425.19 121.418 426.322 124.252 426.262C127.064 426.199 130.056 424.946 133.229 422.503L135.28 420.885C138.487 418.354 140.48 415.691 141.261 412.898C142.019 410.101 141.465 407.521 139.599 405.158C137.724 402.782 135.409 401.623 132.656 401.681C129.89 401.75 126.875 403.04 123.613 405.554L121.543 407.187Z" fill="#161616"/>
<path id="P" d="M111.879 381.09L124.548 375.333L126.487 379.6L94.1259 394.308L88.7014 382.372C87.0919 378.831 86.7365 375.649 87.6351 372.827C88.527 369.99 90.462 367.895 93.4404 366.542C96.5817 365.114 99.4522 364.998 102.052 366.195C104.63 367.383 106.751 369.807 108.414 373.467L111.879 381.09ZM108.389 382.676L104.904 375.008C103.867 372.726 102.539 371.22 100.92 370.49C99.2862 369.767 97.4543 369.866 95.4243 370.789C93.498 371.664 92.2331 372.972 91.6296 374.713C91.026 376.453 91.1835 378.393 92.1021 380.532L95.6982 388.444L108.389 382.676Z" fill="#161616"/>
<path id="A" d="M99.0322 324.758L101.77 339.397L111.505 340.979L112.393 345.73L74.9566 338.923L74.2025 334.892L106.643 314.989L107.527 319.717L99.0322 324.758ZM97.7184 338.714L95.4964 326.835L80.2671 335.844L97.7184 338.714Z" fill="#161616"/>
</g>
<g id="Group 2">
<path id="S_2" d="M148.384 167.71C144.682 169.659 141.588 170.665 139.1 170.728C136.613 170.768 134.513 169.895 132.8 168.11C130.863 166.089 130.068 163.65 130.415 160.791C130.763 157.908 132.229 155.228 134.814 152.75C136.576 151.06 138.47 149.896 140.498 149.26C142.538 148.611 144.508 148.526 146.409 149.003C148.322 149.469 149.96 150.413 151.323 151.834L147.922 155.096C146.435 153.545 144.776 152.802 142.944 152.868C141.101 152.921 139.281 153.81 137.484 155.534C135.816 157.133 134.867 158.754 134.637 160.395C134.407 162.014 134.918 163.475 136.168 164.779C137.171 165.824 138.462 166.288 140.041 166.172C141.621 166.032 143.762 165.242 146.462 163.802C149.175 162.351 151.479 161.415 153.376 160.994C155.273 160.55 156.972 160.534 158.471 160.945C159.982 161.345 161.363 162.197 162.613 163.501C164.608 165.58 165.397 168.025 164.981 170.837C164.554 173.637 162.984 176.338 160.271 178.94C158.509 180.63 156.543 181.873 154.374 182.668C152.193 183.451 150.123 183.655 148.162 183.28C146.213 182.894 144.523 181.955 143.093 180.464L146.493 177.202C147.98 178.753 149.727 179.434 151.734 179.246C153.742 179.034 155.703 178.01 157.618 176.174C159.403 174.462 160.422 172.785 160.675 171.144C160.928 169.503 160.452 168.054 159.247 166.797C158.041 165.541 156.671 164.994 155.137 165.158C153.591 165.309 151.34 166.16 148.384 167.71Z" fill="#161616"/>
<path id="H_2" d="M203.447 148.077L199.365 150.43L191.16 136.195L175.634 145.143L183.839 159.378L179.778 161.719L162.027 130.921L166.089 128.581L173.72 141.822L189.246 132.874L181.614 119.632L185.697 117.279L203.447 148.077Z" fill="#161616"/>
<path id="O_2" d="M238.031 119.138C238.997 122.484 239.279 125.571 238.876 128.398C238.468 131.209 237.422 133.57 235.737 135.479C234.053 137.389 231.834 138.741 229.082 139.536C226.393 140.313 223.818 140.345 221.359 139.632C218.896 138.904 216.733 137.487 214.871 135.382C213.021 133.257 211.615 130.588 210.653 127.376L209.941 124.913C208.993 121.629 208.726 118.564 209.14 115.717C209.555 112.87 210.61 110.481 212.305 108.551C214.012 106.601 216.211 105.238 218.9 104.461C221.637 103.671 224.237 103.64 226.7 104.368C229.175 105.076 231.339 106.527 233.192 108.719C235.04 110.896 236.446 113.649 237.408 116.98L238.031 119.138ZM232.914 118.227C231.744 114.177 230.035 111.308 227.785 109.62C225.531 107.916 222.942 107.486 220.018 108.331C217.172 109.153 215.242 110.888 214.228 113.536C213.225 116.163 213.256 119.407 214.32 123.267L215.045 125.777C216.178 129.702 217.891 132.553 220.184 134.331C222.487 136.088 225.085 136.549 227.978 135.713C230.886 134.873 232.833 133.167 233.818 130.596C234.799 128.008 234.742 124.73 233.646 120.76L232.914 118.227Z" fill="#161616"/>
<path id="P_2" d="M260.728 119.128L261.278 133.033L256.594 133.218L255.19 97.6991L268.29 97.181C272.177 97.0272 275.257 97.899 277.531 99.7963C279.822 101.693 281.031 104.276 281.161 107.545C281.297 110.993 280.321 113.694 278.232 115.65C276.158 117.589 273.113 118.638 269.096 118.797L260.728 119.128ZM260.577 115.298L268.993 114.965C271.498 114.866 273.394 114.204 274.681 112.981C275.968 111.741 276.567 110.007 276.479 107.779C276.395 105.664 275.661 103.999 274.278 102.784C272.894 101.568 271.038 100.982 268.711 101.025L260.026 101.368L260.577 115.298Z" fill="#161616"/>
<path id="A_2" d="M317.743 128.494L303.153 125.505L298.014 133.921L293.279 132.951L313.713 100.853L317.731 101.676L323.916 139.23L319.205 138.264L317.743 128.494ZM305.315 122.01L317.154 124.436L314.56 106.933L305.315 122.01Z" fill="#161616"/>
</g>
</g>
</svg>
